<svg xmlns="http://www.w3.org/2000/svg" viewBox="0 0 1200 750" role="img" aria-label="诸葛亮梦境封面">
  <defs>
    <linearGradient id="sky" x1="0" y1="0" x2="1" y2="1">
      <stop offset="0" stop-color="#17202c"/>
      <stop offset="1" stop-color="#314a4b"/>
    </linearGradient>
  </defs>
  <rect width="1200" height="750" fill="url(#sky)"/>
  <g fill="#f2dfa9">
    <circle cx="870" cy="130" r="5"/><circle cx="940" cy="220" r="4"/><circle cx="775" cy="255" r="4"/>
    <circle cx="1010" cy="330" r="5"/><circle cx="710" cy="110" r="4"/><circle cx="1060" cy="140" r="4"/>
  </g>
  <path d="M180 600h840" stroke="#f2dfa9" stroke-width="18" stroke-linecap="round"/>
  <path d="M580 215c-110 80-165 190-165 330h330c0-140-55-250-165-330z" fill="#f7f4ed"/>
  <path d="M390 545h380" stroke="#9c2f35" stroke-width="24" stroke-linecap="round"/>
  <path d="M510 295l70-110 70 110" fill="none" stroke="#f2dfa9" stroke-width="18" stroke-linecap="round" stroke-linejoin="round"/>
  <path d="M485 390c58 28 125 28 190 0" fill="none" stroke="#1c524c" stroke-width="18" stroke-linecap="round"/>
  <text x="92" y="150" fill="#f7f4ed" font-family="serif" font-size="76" font-weight="700">五丈原最后一盏灯</text>
  <text x="98" y="218" fill="#f2dfa9" font-family="serif" font-size="38">诸葛亮 · 三国</text>
</svg>
