<svg width="1200" height="630" viewBox="0 0 1200 630" fill="none" xmlns="http://www.w3.org/2000/svg" role="img" aria-labelledby="title desc">
  <title id="title">Dameng Qiangu social preview</title>
  <desc id="desc">AI historical interactive fiction game preview with dream cards, stats, and branching choices.</desc>
  <rect width="1200" height="630" fill="#f7f4ed"/>
  <path d="M0 0H1200V630H0V0Z" fill="url(#paper)"/>
  <path d="M64 73C205 26 322 42 415 121C535 223 644 191 764 116C884 41 1036 48 1135 124V630H64V73Z" fill="#1c524c" fill-opacity=".08"/>
  <path d="M766 52C896 40 1020 101 1119 237" stroke="#9c2f35" stroke-width="3" stroke-opacity=".35"/>
  <path d="M88 476C236 401 384 404 532 485C673 562 855 561 1048 476" stroke="#1c524c" stroke-width="3" stroke-opacity=".28"/>

  <g transform="translate(74 70)">
    <rect x="0" y="0" width="1052" height="490" rx="24" fill="white" fill-opacity=".78" stroke="#1d2430" stroke-opacity=".12"/>
    <g transform="translate(48 48)">
      <rect x="0" y="0" width="72" height="72" rx="10" fill="#1c524c"/>
      <text x="36" y="49" fill="#f7f4ed" font-size="42" font-weight="800" text-anchor="middle" font-family="system-ui, -apple-system, BlinkMacSystemFont, Segoe UI, sans-serif">梦</text>
      <text x="96" y="30" fill="#111827" font-size="25" font-weight="800" font-family="system-ui, -apple-system, BlinkMacSystemFont, Segoe UI, sans-serif">Dameng Qiangu</text>
      <text x="96" y="61" fill="#9c2f35" font-size="18" font-weight="800" font-family="system-ui, -apple-system, BlinkMacSystemFont, Segoe UI, sans-serif">AI-native historical interactive fiction</text>
    </g>

    <g transform="translate(48 156)">
      <text x="0" y="0" fill="#111827" font-size="64" font-weight="900" font-family="system-ui, -apple-system, BlinkMacSystemFont, Segoe UI, sans-serif">Enter a Great Mind's Dream</text>
      <text x="0" y="48" fill="#586371" font-size="25" font-weight="600" font-family="system-ui, -apple-system, BlinkMacSystemFont, Segoe UI, sans-serif">Play pre-Qing historical figures. Create your own dream levels with AI.</text>
    </g>

    <g transform="translate(48 282)">
      <rect x="0" y="0" width="288" height="154" rx="12" fill="#1c524c"/>
      <text x="26" y="42" fill="#f7f4ed" font-size="24" font-weight="800" font-family="system-ui, -apple-system, BlinkMacSystemFont, Segoe UI, sans-serif">Zhuge Liang</text>
      <text x="26" y="78" fill="#d9f0ea" font-size="17" font-weight="700" font-family="system-ui, -apple-system, BlinkMacSystemFont, Segoe UI, sans-serif">The Last Lamp at Wuzhang</text>
      <text x="26" y="115" fill="#ffffff" font-size="16" font-family="system-ui, -apple-system, BlinkMacSystemFont, Segoe UI, sans-serif">Steady campaign, final gamble, or</text>
      <text x="26" y="139" fill="#ffffff" font-size="16" font-family="system-ui, -apple-system, BlinkMacSystemFont, Segoe UI, sans-serif">legacy strategy?</text>
    </g>

    <g transform="translate(368 282)">
      <rect x="0" y="0" width="288" height="154" rx="12" fill="#ffffff" stroke="#1d2430" stroke-opacity=".14"/>
      <text x="26" y="42" fill="#9c2f35" font-size="18" font-weight="900" font-family="system-ui, -apple-system, BlinkMacSystemFont, Segoe UI, sans-serif">Echo of the Last Thought</text>
      <text x="26" y="80" fill="#27313f" font-size="18" font-weight="700" font-family="system-ui, -apple-system, BlinkMacSystemFont, Segoe UI, sans-serif">Every choice triggers a</text>
      <text x="26" y="108" fill="#27313f" font-size="18" font-weight="700" font-family="system-ui, -apple-system, BlinkMacSystemFont, Segoe UI, sans-serif">dramatic consequence.</text>
    </g>

    <g transform="translate(688 282)">
      <rect x="0" y="0" width="288" height="154" rx="12" fill="#ffffff" stroke="#1d2430" stroke-opacity=".14"/>
      <text x="26" y="42" fill="#111827" font-size="22" font-weight="900" font-family="system-ui, -apple-system, BlinkMacSystemFont, Segoe UI, sans-serif">AI Dream Creator</text>
      <text x="26" y="78" fill="#586371" font-size="17" font-weight="700" font-family="system-ui, -apple-system, BlinkMacSystemFont, Segoe UI, sans-serif">Structured Outputs + Zod</text>
      <text x="26" y="112" fill="#586371" font-size="17" font-weight="700" font-family="system-ui, -apple-system, BlinkMacSystemFont, Segoe UI, sans-serif">local saves + share links</text>
    </g>

    <g transform="translate(718 54)">
      <rect x="0" y="0" width="236" height="34" rx="17" fill="#9c2f35" fill-opacity=".12"/>
      <text x="118" y="23" fill="#9c2f35" font-size="15" font-weight="900" text-anchor="middle" font-family="system-ui, -apple-system, BlinkMacSystemFont, Segoe UI, sans-serif">React · TypeScript · OpenAI</text>
    </g>
  </g>

  <defs>
    <pattern id="paper" width="80" height="80" patternUnits="userSpaceOnUse">
      <path d="M80 0H0V80" stroke="#1d2430" stroke-opacity=".035"/>
    </pattern>
  </defs>
</svg>
